<?xml version="1.0" standalone="no"?>
<!DOCTYPE svg PUBLIC "-//W3C//DTD SVG 20010904//EN"
 "http://www.w3.org/TR/2001/REC-SVG-20010904/DTD/svg10.dtd">
<svg version="1.0" xmlns="http://www.w3.org/2000/svg"
 width="1024.000000pt" height="1024.000000pt" viewBox="0 0 1024.000000 1024.000000"
 preserveAspectRatio="xMidYMid meet">

<g transform="translate(0.000000,1024.000000) scale(0.100000,-0.100000)"
fill="#000000" stroke="none">
<path d="M4763 7923 l-72 -4 -77 -77 c-42 -42 -81 -88 -86 -102 -5 -13 -6 -46
-3 -71 5 -36 2 -54 -10 -73 -11 -17 -15 -35 -10 -54 10 -47 42 -69 111 -75
l62 -6 6 44 c12 74 81 118 150 95 44 -14 74 -54 78 -106 l3 -39 335 0 335 0 5
41 c8 56 32 90 74 104 30 10 42 8 80 -8 49 -22 76 -62 76 -112 l0 -30 93 0
c118 0 127 7 127 105 0 66 -1 68 -42 110 -34 33 -59 47 -118 65 -132 40 -155
49 -236 101 -163 105 -135 99 -494 97 -173 -1 -347 -4 -387 -5z m580 -50 c8
-10 27 -44 41 -75 l25 -58 -103 0 c-71 0 -107 4 -113 13 -10 11 -33 95 -33
116 0 14 25 19 101 20 51 1 69 -3 82 -16z m-249 -15 c3 -13 9 -45 14 -71 l10
-48 -102 6 c-152 9 -149 8 -141 58 13 74 18 77 122 77 88 0 93 -1 97 -22z
m456 -25 c87 -46 104 -59 97 -77 -7 -18 -84 -31 -129 -22 -28 5 -39 17 -68 69
-19 34 -37 66 -39 70 -7 17 77 -7 139 -40z m-693 20 c-3 -10 -8 -35 -12 -55
-7 -42 -16 -45 -75 -28 -72 21 -76 46 -12 73 77 33 106 35 99 10z m61 -170
c-10 -2 -26 -2 -35 0 -10 3 -2 5 17 5 19 0 27 -2 18 -5z m332 -3 c0 -5 -13
-10 -30 -10 -16 0 -30 5 -30 10 0 6 14 10 30 10 17 0 30 -4 30 -10z m685 -10
c37 -8 75 -40 75 -61 0 -5 -24 -9 -54 -9 -56 0 -64 6 -100 68 -9 15 21 16 79
2z"/>
<path d="M4729 7561 c-88 -89 33 -227 129 -146 36 30 47 75 28 120 -27 63
-106 76 -157 26z m109 -54 c4 -37 -15 -59 -47 -55 -17 2 -29 12 -35 30 -13 37
7 60 48 56 26 -2 32 -8 34 -31z"/>
<path d="M5655 7578 c-48 -28 -64 -81 -39 -130 22 -42 42 -57 77 -58 92 -1
141 107 78 171 -32 31 -79 38 -116 17z m87 -63 c10 -22 9 -29 -9 -47 -43 -42
-107 9 -67 53 25 28 62 25 76 -6z"/>
<path d="M6625 2310 c-61 -9 -143 -49 -195 -96 -46 -42 -96 -136 -106 -201
l-7 -46 -131 7 c-523 27 -1361 34 -1886 16 -162 -6 -342 -12 -399 -13 l-103
-2 -17 65 c-23 86 -40 116 -98 171 -82 80 -120 94 -248 94 -131 0 -170 -14
-256 -93 -66 -60 -94 -118 -109 -223 -6 -40 -12 -75 -15 -77 -2 -2 -55 -11
-117 -18 -356 -43 -676 -109 -800 -164 -149 -66 -125 -144 65 -208 167 -57
255 -75 577 -122 478 -68 989 -103 1798 -122 626 -14 1528 5 1964 42 64 5 179
14 255 20 191 14 524 54 733 90 366 61 558 141 537 222 -22 82 -359 178 -822
233 -211 25 -191 16 -198 91 -15 161 -146 310 -289 329 -23 4 -52 8 -63 9 -11
2 -43 0 -70 -4z m-3080 -204 c77 -59 98 -175 46 -258 -97 -153 -334 -94 -349
87 -7 82 23 142 93 187 24 15 44 18 101 16 60 -3 77 -8 109 -32z m3229 14 c61
-29 96 -89 96 -162 0 -115 -76 -198 -180 -198 -144 0 -240 146 -181 275 31 69
89 104 170 105 35 0 70 -7 95 -20z"/>
</g>
</svg>
