<?xml version="1.0" standalone="no"?>
<!DOCTYPE svg PUBLIC "-//W3C//DTD SVG 20010904//EN"
 "http://www.w3.org/TR/2001/REC-SVG-20010904/DTD/svg10.dtd">
<svg version="1.0" xmlns="http://www.w3.org/2000/svg"
 width="640.000000pt" height="640.000000pt" viewBox="0 0 640.000000 640.000000"
 preserveAspectRatio="xMidYMid meet">

<g transform="translate(0.000000,640.000000) scale(0.100000,-0.100000)"
fill="#000000" stroke="none">
<path d="M3135 4841 c-95 -10 -126 -21 -300 -107 -121 -59 -170 -78 -255 -96
-86 -18 -110 -27 -138 -53 -32 -29 -34 -35 -38 -112 -5 -76 -4 -82 18 -97 15
-10 44 -16 84 -16 45 0 65 -4 75 -17 21 -25 78 -45 109 -38 15 3 38 17 50 31
l23 24 543 0 542 0 29 -24 c52 -43 107 -42 158 3 11 10 43 21 73 24 93 11 135
52 112 112 -5 14 -10 36 -10 49 0 39 -41 65 -143 90 -84 21 -105 31 -174 83
-135 101 -156 113 -234 128 -85 17 -418 27 -524 16z m405 -66 c100 -9 164 -33
220 -83 28 -24 50 -48 50 -53 0 -5 -89 -9 -200 -9 -199 0 -200 0 -204 23 -11
53 -17 118 -11 127 3 6 23 8 43 5 20 -2 66 -7 102 -10z m-202 -67 l-3 -72
-175 3 c-142 2 -177 5 -183 17 -8 13 -12 13 -32 0 -33 -22 -55 -20 -55 3 0 31
126 90 245 115 11 2 62 4 113 5 l93 1 -3 -72z m-635 -252 c22 -17 22 -64 0
-88 -22 -25 -55 -23 -82 6 -49 52 24 126 82 82z m1299 -9 c38 -59 -41 -128
-94 -80 -42 38 -3 110 55 99 17 -4 35 -12 39 -19z"/>
<path d="M2637 4433 c-13 -12 -7 -28 14 -42 18 -11 23 -11 30 1 17 26 10 48
-14 48 -13 0 -27 -3 -30 -7z"/>
<path d="M3921 4427 c-8 -10 -7 -18 2 -31 19 -26 51 -17 55 17 3 23 0 27 -21
27 -14 0 -30 -6 -36 -13z"/>
<path d="M1034 4551 c-44 -27 -69 -94 -55 -147 18 -69 86 -115 146 -100 13 3
40 20 59 36 28 25 35 39 41 85 8 64 -12 116 -51 134 -38 17 -105 13 -140 -8z"/>
<path d="M2051 1330 c-96 -23 -161 -111 -161 -220 l0 -66 -52 -2 c-29 -1 -73
-6 -98 -11 -25 -6 -58 -13 -75 -15 -28 -5 -28 -5 -5 4 54 19 -200 -13 -397
-51 -35 -7 -63 -16 -63 -21 0 -4 -6 -8 -14 -8 -7 0 -19 -7 -26 -15 -10 -12
-10 -18 0 -30 7 -9 19 -14 26 -11 7 3 14 0 17 -7 2 -6 20 -11 40 -11 20 0 32
-3 26 -7 -16 -10 18 -16 263 -49 466 -62 1015 -85 1853 -77 618 6 1091 29
1158 56 34 13 61 14 32 0 -26 -12 121 -2 240 16 50 8 115 17 145 20 58 7 172
35 180 44 3 3 16 7 30 9 32 3 43 16 36 40 -8 23 -114 57 -149 47 -13 -4 -17
-3 -10 2 17 12 -279 62 -327 55 -8 -1 -33 2 -55 8 -33 8 -114 17 -172 19 -9 1
-13 18 -13 54 0 28 -5 69 -11 90 -26 95 -149 161 -256 137 -112 -25 -181 -129
-170 -255 2 -31 0 -52 -4 -49 -5 3 -7 9 -4 14 3 4 -11 8 -30 8 -60 0 -138 14
-125 22 23 14 -578 23 -1030 15 -487 -8 -500 -8 -516 -6 -6 0 -11 21 -12 46 0
50 -30 121 -65 153 -26 25 -119 62 -150 61 -12 -1 -37 -5 -56 -9z m131 -101
c80 -57 73 -185 -13 -231 -101 -54 -209 23 -196 139 5 46 34 88 72 103 39 17
106 11 137 -11z m2161 -9 c67 -58 73 -130 16 -195 -57 -65 -157 -57 -205 15
-22 34 -26 48 -22 90 8 79 52 118 135 119 33 1 50 -5 76 -29z m-1523 -150 c0
-6 -23 -9 -52 -8 l-53 1 45 7 c25 4 48 8 53 8 4 1 7 -2 7 -8z m183 3 c-24 -2
-62 -2 -85 0 -24 2 -5 4 42 4 47 0 66 -2 43 -4z m366 -2 c28 -18 -29 -22 -264
-19 l-230 3 245 5 c179 3 222 5 160 10 l-85 6 80 2 c44 1 87 -2 94 -7z m-821
-8 c-10 -2 -26 -2 -35 0 -10 3 -2 5 17 5 19 0 27 -2 18 -5z m107 -3 c3 -5 -1
-10 -10 -10 -9 0 -13 5 -10 10 3 6 8 10 10 10 2 0 7 -4 10 -10z m848 3 c-13
-2 -35 -2 -50 0 -16 2 -5 4 22 4 28 0 40 -2 28 -4z m300 0 c-24 -2 -62 -2 -85
0 -24 2 -5 4 42 4 47 0 66 -2 43 -4z m-1275 -20 c-10 -2 -26 -2 -35 0 -10 3
-2 5 17 5 19 0 27 -2 18 -5z m1055 0 c-13 -2 -33 -2 -45 0 -13 2 -3 4 22 4 25
0 35 -2 23 -4z m160 0 c-13 -2 -35 -2 -50 0 -16 2 -5 4 22 4 28 0 40 -2 28 -4z
m-2130 -40 c-7 -2 -19 -2 -25 0 -7 3 -2 5 12 5 14 0 19 -2 13 -5z m2417 -14
c0 -6 -4 -7 -10 -4 -5 3 -10 11 -10 16 0 6 5 7 10 4 6 -3 10 -11 10 -16z m717
15 c-3 -3 -12 -4 -19 -1 -8 3 -5 6 6 6 11 1 17 -2 13 -5z m-3074 -21 c-7 -2
-19 -2 -25 0 -7 3 -2 5 12 5 14 0 19 -2 13 -5z m637 3 c0 -2 -7 -9 -15 -16
-13 -11 -14 -10 -9 4 5 14 24 23 24 12z m1774 -12 c5 -14 4 -15 -9 -4 -17 14
-19 20 -6 20 5 0 12 -7 15 -16z m885 7 c8 -5 -5 -7 -35 -4 -27 3 -51 7 -53 9
-9 8 75 3 88 -5z m-3376 -8 c-7 -2 -21 -2 -30 0 -10 3 -4 5 12 5 17 0 24 -2
18 -5z m3087 3 c0 -2 -11 -6 -25 -8 -13 -3 -22 -1 -19 3 5 9 44 13 44 5z m67
-2 c-3 -3 -12 -4 -19 -1 -8 3 -5 6 6 6 11 1 17 -2 13 -5z m-2427 -14 c0 -5 -5
-10 -11 -10 -5 0 -7 5 -4 10 3 6 8 10 11 10 2 0 4 -4 4 -10z m-356 -26 c24
-23 19 -27 -9 -8 -14 9 -25 18 -25 20 0 10 20 3 34 -12z m306 1 c-7 -9 -15
-13 -17 -11 -7 7 7 26 19 26 6 0 6 -6 -2 -15z m2160 5 c0 -5 -5 -10 -11 -10
-5 0 -7 5 -4 10 3 6 8 10 11 10 2 0 4 -4 4 -10z m-2126 -16 c3 -8 2 -12 -4 -9
-6 3 -10 10 -10 16 0 14 7 11 14 -7z m2886 -4 c18 -12 2 -12 -25 0 -13 6 -15
9 -5 9 8 0 22 -4 30 -9z m-819 -14 c-8 -10 -9 -15 -1 -18 6 -2 -8 -4 -30 -4
l-42 -1 39 17 c48 23 48 23 34 6z m-2406 -6 c3 -5 -3 -10 -15 -10 -12 0 -18 5
-15 10 3 6 10 10 15 10 5 0 12 -4 15 -10z m326 -7 c13 -17 13 -17 -6 -3 -11 8
-22 16 -24 17 -2 2 0 3 6 3 6 0 17 -8 24 -17z m2159 7 c0 -5 -4 -10 -10 -10
-5 0 -10 5 -10 10 0 6 5 10 10 10 6 0 10 -4 10 -10z m-2200 -10 c0 -5 -2 -10
-4 -10 -3 0 -8 5 -11 10 -3 6 -1 10 4 10 6 0 11 -4 11 -10z m-737 -27 c-7 -2
-19 -2 -25 0 -7 3 -2 5 12 5 14 0 19 -2 13 -5z m3314 1 c-3 -3 -12 -4 -19 -1
-8 3 -5 6 6 6 11 1 17 -2 13 -5z m-507 -14 c0 -5 -18 -10 -40 -10 -22 0 -40 5
-40 10 0 6 18 10 40 10 22 0 40 -4 40 -10z m-2817 -17 c-13 -2 -33 -2 -45 0
-13 2 -3 4 22 4 25 0 35 -2 23 -4z m2896 -44 c30 -1 14 -5 -44 -10 -49 -5 -97
-7 -105 -5 -8 2 5 5 30 6 42 2 43 3 15 10 -24 6 -21 7 14 4 24 -2 65 -5 90 -5z
m-2239 -9 c0 -13 -11 -13 -30 0 -12 8 -11 10 8 10 12 0 22 -4 22 -10z m1993 3
c-7 -2 -21 -2 -30 0 -10 3 -4 5 12 5 17 0 24 -2 18 -5z m-2076 -9 c-3 -3 -12
-4 -19 -1 -8 3 -5 6 6 6 11 1 17 -2 13 -5z m160 0 c-3 -3 -12 -4 -19 -1 -8 3
-5 6 6 6 11 1 17 -2 13 -5z m1531 -1 c-15 -2 -42 -2 -60 0 -18 2 -6 4 27 4 33
0 48 -2 33 -4z m259 -9 c-3 -3 -12 -4 -19 -1 -8 3 -5 6 6 6 11 1 17 -2 13 -5z"/>
<path d="M3948 1063 c18 -2 45 -2 60 0 15 2 0 4 -33 4 -33 0 -45 -2 -27 -4z"/>
</g>
</svg>
