<?xml version="1.0" standalone="no"?>
<!DOCTYPE svg PUBLIC "-//W3C//DTD SVG 20010904//EN"
 "http://www.w3.org/TR/2001/REC-SVG-20010904/DTD/svg10.dtd">
<svg version="1.0" xmlns="http://www.w3.org/2000/svg"
 width="1024.000000pt" height="1024.000000pt" viewBox="0 0 1024.000000 1024.000000"
 preserveAspectRatio="xMidYMid meet">

<g transform="translate(0.000000,1024.000000) scale(0.100000,-0.100000)"
fill="#000000" stroke="none">
<path d="M5921 5980 l-74 -48 -331 -5 c-272 -4 -354 -9 -461 -26 -298 -49
-576 -135 -932 -290 -131 -57 -342 -163 -457 -229 -92 -53 -96 -57 -67 -60 48
-5 126 15 169 42 86 54 379 200 552 274 217 94 463 183 599 217 331 82 849 66
1425 -45 195 -37 534 -120 670 -164 56 -18 143 -43 193 -56 51 -12 91 -26 88
-30 -3 -5 3 -6 14 -3 10 3 22 0 25 -6 4 -6 0 -11 -11 -11 -15 0 -16 -2 -3 -10
13 -8 12 -10 -3 -10 -10 0 -16 -4 -13 -8 9 -14 -68 -89 -99 -97 l-30 -8 29
-12 28 -12 -23 -6 c-13 -4 -69 -7 -124 -7 -224 0 -629 -89 -901 -196 -91 -36
-117 -60 -37 -33 21 7 47 14 58 15 11 2 40 10 66 17 39 13 50 13 79 1 18 -8
30 -17 26 -21 -3 -3 -17 -1 -30 6 -17 10 -34 10 -67 2 l-44 -11 41 4 c45 4 70
-6 60 -23 -10 -15 -27 -14 -21 2 4 9 -8 12 -42 10 -90 -2 -90 -2 -48 -21 25
-12 35 -21 27 -26 -7 -4 -12 -22 -12 -41 0 -24 -9 -42 -31 -64 -17 -17 -35
-31 -40 -31 -5 0 -9 -4 -9 -9 0 -12 -59 -71 -71 -71 -5 0 -9 -6 -9 -13 0 -7
-9 -18 -20 -25 -12 -7 -25 -24 -30 -38 -5 -13 -18 -27 -27 -31 -23 -8 -33 -23
-33 -50 0 -12 -11 -30 -25 -41 -29 -23 -33 -42 -9 -42 14 0 15 -2 3 -17 -13
-15 -14 -15 -17 0 -2 10 -10 17 -18 17 -19 0 -19 -56 1 -64 28 -11 16 -26 -17
-19 -22 4 -29 3 -24 -5 4 -7 18 -12 32 -12 13 0 24 -5 24 -11 0 -7 -14 -8 -40
-4 -23 4 -40 3 -40 -3 0 -25 -155 -45 -171 -22 -8 12 -9 10 -4 -6 4 -17 0 -23
-17 -28 -28 -7 -315 -40 -538 -61 -91 -9 -280 -27 -420 -40 -453 -43 -1120
-98 -1090 -90 0 0 7 32 15 70 19 90 19 183 0 264 -44 186 -212 358 -411 421
-87 28 -238 30 -333 5 -220 -57 -388 -234 -431 -453 -17 -85 -8 -223 19 -290
11 -29 21 -55 21 -59 0 -8 -378 2 -387 10 -4 4 13 27 36 51 l43 44 -37 139
c-20 76 -41 142 -45 146 -6 7 -168 -28 -179 -39 -2 -2 31 -40 74 -86 88 -94
92 -77 -35 -156 -84 -52 -90 -58 -90 -89 0 -27 45 -42 220 -75 89 -17 154 -22
286 -22 l170 -1 32 -41 c17 -23 58 -62 92 -88 51 -38 58 -46 38 -46 -293 -1
-1165 -38 -1187 -49 -71 -41 1247 -63 3634 -63 2245 -1 3501 22 3458 62 -12
12 -853 46 -1213 50 -54 1 -55 1 -30 17 50 33 167 159 198 214 28 49 37 58 70
64 20 3 118 31 217 60 209 62 197 53 280 220 70 139 79 193 42 256 -21 37 -24
53 -20 96 5 46 1 61 -40 145 -83 173 -82 168 -53 288 14 56 26 109 26 116 0
11 -26 14 -122 14 -113 0 -322 19 -393 35 -17 4 -158 50 -315 102 -157 52
-337 110 -400 128 -153 44 -450 115 -567 135 -35 5 -89 14 -120 20 -32 5 -87
12 -123 16 -56 6 -116 23 -84 24 7 0 19 11 27 24 20 29 32 76 21 75 -5 0 -42
-22 -83 -49z m1306 -576 c-3 -3 -12 -4 -19 -1 -8 3 -5 6 6 6 11 1 17 -2 13 -5z
m769 -184 c-9 -105 -16 -140 -30 -140 -6 0 -69 36 -141 80 -71 44 -137 84
-145 89 -8 5 -13 11 -10 14 5 5 242 32 309 36 24 1 24 1 17 -79z m-1523 -7
c-7 -2 -19 -2 -25 0 -7 3 -2 5 12 5 14 0 19 -2 13 -5z m-174 -89 c10 -9 -55
-3 -69 6 -10 6 -2 7 25 3 22 -3 42 -7 44 -9z m-3104 -189 c113 -40 228 -139
283 -243 41 -78 55 -152 50 -260 -4 -82 -8 -99 -46 -174 -57 -114 -127 -185
-239 -240 l-86 -43 -126 0 c-122 0 -128 1 -195 33 -170 80 -278 219 -305 390
-37 239 122 480 360 547 72 20 236 15 304 -10z m3970 10 c87 -23 152 -62 226
-135 120 -118 166 -266 135 -429 -30 -162 -126 -285 -278 -361 -81 -40 -95
-43 -186 -48 -119 -5 -186 11 -284 69 -195 117 -288 340 -233 554 44 168 181
302 358 350 70 18 189 18 262 0z m-1232 -442 c-13 -2 -33 -2 -45 0 -13 2 -3 4
22 4 25 0 35 -2 23 -4z m-206 -29 c-3 -3 -12 -4 -19 -1 -8 3 -5 6 6 6 11 1 17
-2 13 -5z m810 -314 c31 -44 87 -102 133 -139 l45 -36 -1680 0 -1680 0 93 93
92 92 483 1 c265 1 586 5 712 9 127 4 580 7 1008 6 l777 -2 17 -24z"/>
<path d="M5159 5810 c-303 -35 -651 -151 -1036 -346 -218 -111 -310 -166 -319
-189 -4 -8 0 -22 7 -31 12 -14 34 -16 180 -9 l167 7 74 -41 c41 -23 80 -41 86
-41 7 0 12 17 12 45 0 40 3 45 23 45 75 0 1066 71 1332 95 575 52 785 79 887
111 52 17 141 104 136 133 -8 42 -450 146 -853 202 -168 23 -564 34 -696 19z
m-734 -364 c9 -14 15 -39 13 -58 l-3 -33 -148 -18 c-82 -10 -155 -16 -163 -13
-45 17 31 81 140 118 103 35 140 36 161 4z"/>
<path d="M7277 5539 c7 -7 15 -10 18 -7 3 3 -2 9 -12 12 -14 6 -15 5 -6 -5z"/>
<path d="M7138 5383 c12 -2 32 -2 45 0 12 2 2 4 -23 4 -25 0 -35 -2 -22 -4z"/>
<path d="M2990 5259 c-311 -33 -669 -158 -952 -331 -106 -64 -140 -94 -136
-116 3 -15 23 -17 182 -20 l178 -2 88 83 c234 223 446 298 928 329 100 7 177
15 169 19 -63 36 -299 56 -457 38z m-557 -241 c-21 -18 -74 -69 -118 -113
l-80 -80 -127 0 c-71 0 -128 3 -128 7 0 28 250 150 395 193 103 31 104 31 58
-7z"/>
<path d="M5590 5154 c-581 -42 -936 -70 -1145 -89 -414 -38 -536 -50 -827 -82
-32 -3 -58 -9 -58 -12 0 -11 84 -41 113 -41 26 0 198 18 527 55 187 21 379 42
550 59 632 66 840 89 1055 115 70 8 70 8 15 8 -30 0 -134 -5 -230 -13z"/>
<path d="M5850 4973 c-46 -91 -103 -198 -125 -237 -23 -39 -52 -89 -64 -111
l-23 -40 36 40 c56 62 162 225 196 299 32 73 75 204 68 211 -2 3 -42 -70 -88
-162z"/>
</g>
</svg>
